<svg xmlns="http://www.w3.org/2000/svg" width="20" height="60" viewBox="0 0 20 60" fill="none">
  <path d="M1.23139 46.1656L9.87117 59.7465C9.87117 59.7436 9.87117 59.7438 9.87117 59.7465C9.87117 59.7439 9.87117 59.741 9.87117 59.7438C9.87117 59.741 9.87117 59.7465 9.87117 59.7438L18.511 46.1656C18.6487 45.9117 18.6979 45.6193 18.6511 45.3343C18.6042 45.0493 18.8619 45.5307 18.6502 45.3343C18.4384 45.138 18.9378 45.3596 18.6502 45.3343C18.3624 45.309 16.5689 47.1122 16.3261 47.2686L10.8243 51.0466L10.5227 0.676514C10.1805 0.676514 9.23734 0.676514 9.23734 0.676514V51.0466L3.73557 47.2686C3.49281 47.1122 1.3854 45.2728 1.09771 45.2981C0.810033 45.3234 1.30947 45.1017 1.09771 45.2981C0.885965 45.4945 1.13809 45.0493 1.09123 45.3343C1.04437 45.6193 1.09368 45.9117 1.23139 46.1656Z" fill="#00019F"/>
</svg>